<svg width="25" height="10" viewBox="0 0 25 10" fill="none" xmlns="http://www.w3.org/2000/svg">
<g id="Group">
<path id="Vector" d="M15.7857 9.88858C15.5289 9.88858 15.2721 9.83782 15.0694 9.72906C14.6774 9.51878 14.6774 9.17073 15.0694 8.96045L22.5572 4.94338L15.0694 0.92632C14.6774 0.71604 14.6774 0.36799 15.0694 0.15771C15.4613 -0.05257 16.1101 -0.05257 16.5021 0.15771L24.7062 4.55907C25.0982 4.76935 25.0982 5.1174 24.7062 5.32768L16.5021 9.72906C16.2993 9.83782 16.0425 9.88858 15.7857 9.88858Z" fill="#81865E"/>
<path id="Vector_2" d="M23.761 5.48719H1.0137C0.459542 5.48719 0 5.24066 0 4.94336C0 4.64607 0.459542 4.39954 1.0137 4.39954H23.761C24.3152 4.39954 24.7747 4.64607 24.7747 4.94336C24.7747 5.24066 24.3152 5.48719 23.761 5.48719Z" fill="#81865E"/>
</g>
</svg>
